Coordinates
version=1
nRows=14
nColumns=36
inDegrees=yes

Units are S.I. units (second, meters, Newtons, ...)
If the header above contains a line with 'inDegrees', this indicates whether rotational values are in degrees (yes) or radians (no).

endheader
time	pelvis_tilt	pelvis_list	pelvis_rotation	pelvis_tx	pelvis_ty	pelvis_tz	hip_flexion_r	hip_adduction_r	hip_rotation_r	knee_angle_r	knee_angle_r_beta	ankle_angle_r	subtalar_angle_r	mtp_angle_r	hip_flexion_l	hip_adduction_l	hip_rotation_l	knee_angle_l	knee_angle_l_beta	ankle_angle_l	subtalar_angle_l	mtp_angle_l	lumbar_extension	lumbar_bending	lumbar_rotation	arm_flex_r	arm_add_r	arm_rot_r	elbow_flex_r	pro_sup_r	arm_flex_l	arm_add_l	arm_rot_l	elbow_flex_l	pro_sup_l
      1.69000000	    -16.00251778	      3.47606508	     -7.53963347	     -0.27894921	      0.70067990	     -0.55608082	     71.02569969	      5.02874131	     11.36344403	     91.74809819	      1.60130640	     30.12441063	    -22.34437592	     -7.50023029	     73.35576080	     -8.08378394	      0.52051376	     92.48694877	      1.61420177	     26.84845399	    -13.19443890	     -7.50023029	    -21.43756944	     -3.85480298	     -0.86943598	     90.55712082	    -12.70574993	      7.41292015	    119.95212219	    105.42946304	    106.08940249	     -1.77052071	     19.97543494	    112.58181090	    109.53347546
      1.70000000	    -15.97905957	      3.41092009	     -7.60691179	     -0.27569523	      0.71027474	     -0.55500776	     69.64379651	      5.25370198	     11.50923539	     90.00351578	      1.57085769	     29.33954346	    -22.79433247	     -7.50022682	     72.09907903	     -8.28517533	      0.28652470	     90.91556216	      1.58677590	     25.97758372	    -13.07364808	     -7.50022682	    -20.54468953	     -3.89871498	     -1.04378234	     96.61042218	    -13.26319333	      8.50516159	    118.64088170	    105.35493489	    112.43223672	     -1.70968400	     20.74652672	    110.97214719	    109.33800847
      1.71000000	    -16.01024137	      3.40702942	     -7.56668239	     -0.27217722	      0.72053928	     -0.55442315	     68.24458422	      5.27069843	     11.65562095	     88.11904225	      1.53796742	     28.29387049	    -23.42058424	     -7.50022274	     70.80054975	     -8.26402593	     -0.02117564	     89.15101348	      1.55597872	     24.97153663	    -13.24118560	     -7.50022274	    -19.48192743	     -3.85145581	     -1.14381652	    102.56069900	    -13.85409503	      9.87544449	    116.75871001	    105.26791434	    118.28180135	     -1.81363551	     21.63652852	    108.89721323	    109.14085952
      1.72000000	    -16.26799662	      3.48676719	     -7.45287943	     -0.26850213	      0.73098966	     -0.55428463	     67.11393533	      5.04321832	     11.69226541	     86.20747511	      1.50460428	     27.44359304	    -23.52945957	     -7.50022044	     69.72562360	     -8.09002998	     -0.39876927	     87.32048203	      1.52402992	     24.01011929	    -13.23787540	     -7.50022044	    -18.02644569	     -3.79686276	     -1.13187545	    108.21672577	    -14.22880141	     11.10461946	    114.18849710	    105.12831615	    123.65056750	     -1.85334215	     22.45697475	    106.23319260	    108.86428031
      1.73000000	    -16.08302424	      3.55728671	     -7.35786692	     -0.26445453	      0.74347858	     -0.55407143	     65.28768964	      4.78536334	     11.85114771	     83.97363712	      1.46561645	     26.26370664	    -23.76229410	     -7.50021778	     67.91529656	     -7.82962295	     -0.82823454	     85.07565344	      1.48485027	     22.73119351	    -13.56676659	     -7.50021778	    -16.93918638	     -3.71444022	     -1.14571184	    113.49768906	    -14.33353345	     12.97051011	    110.74084313	    105.02673879	    128.55410775	     -2.37646209	     23.89315847	    102.89717124	    108.56301842
      1.74000000	    -15.95622031	      3.67128600	     -7.27138581	     -0.26027651	      0.75679193	     -0.55372163	     63.42372052	      4.53861104	     12.06419974	     81.43251512	      1.42126551	     23.51339382	    -25.73394030	     -7.50020660	     66.07356779	     -7.49083828	     -1.35096870	     82.54035843	      1.44060102	     20.01868603	    -15.85119706	     -7.50020660	    -15.71666895	     -3.55034578	     -1.14231836	    118.42855302	    -13.95427433	     14.91615075	    106.72616303	    105.45924649	    133.06357043	     -3.36816693	     25.72881342	     99.61348671	    108.30717201
      1.75000000	    -16.04507642	      3.75262087	     -7.25975858	     -0.25600221	      0.77042092	     -0.55295556	     61.71668499	      4.38055238	     12.28911203	     78.72056207	      1.37393300	     21.62571813	    -26.36831813	     -7.50019653	     64.38729277	     -7.28421105	     -1.75631316	     79.91836248	      1.39483856	     18.08042012	    -16.58620231	     -7.50019653	    -14.07670923	     -3.40948510	     -0.67025314	    122.94844278	    -13.72098501	     17.04106358	    102.09581165	    105.53708677	    136.87124750	     -3.91652652	     27.42102146	     95.74755385	    107.96825156
      1.76000000	    -16.03540560	      3.78721080	     -7.23947558	     -0.25144601	      0.78509089	     -0.55220300	     59.78176819	      4.14085413	     12.46577491	     75.78061855	      1.32262130	     20.29153757	    -25.92674846	     -7.50019426	     62.51312408	     -7.10065484	     -2.13099859	     77.16850841	      1.34684455	     16.55129121	    -16.25646452	     -7.50019426	    -12.29066374	     -3.37840910	      0.06659441	    126.67437295	    -13.66875651	     19.04477555	     97.00887565	    105.23600746	    139.70090090	     -3.98916731	     29.26839829	     91.37451464	    107.57922320
      1.77000000	    -15.71950216	      3.77242084	     -7.26372786	     -0.24711726	      0.80112760	     -0.55159990	     57.51096631	      3.87770248	     12.54433309	     72.59714857	      1.26705927	     16.87956220	    -27.60601519	     -7.50018388	     60.21881793	     -6.82475693	     -2.47345213	     74.03663261	      1.29218301	     13.20047953	    -18.29406958	     -7.50018388	    -11.16730490	     -3.34555484	      0.90186860	    130.85173737	    -13.84345186	     21.85506447	     92.01529317	    104.87402079	    143.02554465	     -4.12147135	     31.60252949	     87.01301000	    107.14050929
      1.78000000	    -15.23025911	      3.82290054	     -7.38802405	     -0.24274749	      0.81797198	     -0.55082847	     55.07876676	      3.51242062	     12.62251660	     69.34316690	      1.21026658	     14.25543154	    -27.78056052	     -7.50017710	     57.70043956	     -6.62677054	     -2.88956157	     70.88040708	      1.23709648	     10.60237511	    -18.67183149	     -7.50017710	    -10.20233334	     -3.43720807	      1.75094020	    134.54688384	    -13.70757679	     24.51368870	     86.61919228	    104.46784136	    145.99062118	     -4.09604294	     33.96290656	     82.42153139	    106.72794319
      1.79000000	    -14.60605513	      3.93318505	     -7.60106042	     -0.23831543	      0.83607875	     -0.54979475	     52.45105410	      3.09725303	     12.69655126	     65.84479493	      1.14920847	     10.76647049	    -28.31366363	     -7.50016708	     54.85961487	     -6.39861427	     -3.33352974	     67.32937843	      1.17511934	      7.23114942	    -19.36093526	     -7.50016708	     -9.47228809	     -3.59571007	      2.56369998	    137.94715209	    -13.30642453	     27.16218556	     81.16621949	    104.04051068	    148.76844453	     -4.13063732	     36.41513832	     77.96490196	    106.46177995
      1.80000000	    -13.75350119	      4.17614787	     -7.87760083	     -0.23355897	      0.85585134	     -0.54865190	     49.45434230	      2.45426152	     12.78667320	     61.98482678	      1.08183931	      7.62162139	    -28.08368842	     -7.50016181	     51.51315436	     -6.03139028	     -3.87054130	     63.30318492	      1.10484900	      4.12973251	    -19.25791492	     -7.50016181	     -8.96686131	     -3.91409774	      3.31916808	    140.87457002	    -12.85204236	     30.01453499	     75.94364321	    103.78165007	    151.20156517	     -4.27952853	     39.23894764	     73.81794653	    106.33139365
      1.81000000	    -12.69927250	      4.54246750	     -8.17105952	     -0.22850960	      0.87723489	     -0.54765672	     46.11083754	      1.52838455	     12.83441285	     57.65812834	      1.00632418	      3.37747391	    -28.26319636	     -7.50015533	     47.71065669	     -5.47409843	     -4.62103258	     58.67034584	      1.02399071	     -0.09481903	    -19.72329952	     -7.50015533	     -8.60921493	     -4.39871689	      4.05637396	    143.26163328	    -12.47741811	     32.88816783	     71.14379707	    103.65429420	    152.96010145	     -4.29565758	     42.01012871	     69.99526116	    106.38945675
      1.82000000	    -11.49835566	      4.89835955	     -8.45877207	     -0.22325532	      0.89979868	     -0.54673248	     42.45895764	      0.44359526	     12.71835804	     52.90530683	      0.92337180	     -1.42933092	    -28.26546719	     -7.50015294	     43.55146137	     -4.83753846	     -5.45365570	     53.48597719	      0.93350641	     -5.04892300	    -20.22924627	     -7.50015294	     -8.31040122	     -4.93046416	      4.80719018	    144.98390213	    -12.31298442	     35.74312226	     66.75173772	    104.52602377	    153.97659106	     -4.10739470	     44.32011444	     66.41360932	    107.55501287
